<svg width="20" height="20" viewBox="0 0 20 20" fill="none" xmlns="http://www.w3.org/2000/svg">
<g clip-path="url(#clip0_1_1063)">
<path d="M17.3385 7.69217L5.52597 0.410714C4.67135 -0.115419 3.63811 -0.137294 2.76198 0.352199C1.88584 0.841614 1.36279 1.73306 1.36279 2.73662V17.2332C1.36279 18.7506 2.58545 19.9918 4.08819 20C4.09229 20 4.09639 20 4.10042 20C4.57003 20 5.0594 19.8528 5.51647 19.5739C5.88417 19.3495 6.00038 18.8696 5.77604 18.502C5.55171 18.1342 5.07171 18.0181 4.70413 18.2424C4.49034 18.3728 4.28155 18.4402 4.09659 18.4402C3.52959 18.4371 2.92252 17.9514 2.92252 17.2332V2.73666C2.92252 2.30615 3.1469 1.92384 3.52268 1.71388C3.8985 1.50392 4.34167 1.51329 4.7078 1.73872L16.5204 9.02018C16.8754 9.23878 17.0786 9.60327 17.0777 10.0202C17.0768 10.4371 16.8722 10.8008 16.5152 11.0187L7.97468 16.2479C7.60734 16.4728 7.49187 16.9529 7.71679 17.3202C7.94167 17.6876 8.42179 17.8031 8.78913 17.5781L17.3286 12.3495C18.1463 11.8507 18.6356 10.9812 18.6375 10.0233C18.6395 9.06561 18.1537 8.19405 17.3385 7.69217Z" fill="white"/>
</g>
<defs>
<clipPath id="clip0_1_1063">
<rect width="20" height="20" fill="white"/>
</clipPath>
</defs>
</svg>
